<svg width="158" height="119" viewBox="0 0 158 119" fill="none" xmlns="http://www.w3.org/2000/svg">
<path d="M0 29.5843H35.6494V35.5259H41.591V59.2922H35.6494V65.2337H41.591V89H29.7078V71.1753H11.8831V89H0V29.5843ZM29.7078 59.2922V41.4675H11.8831V59.2922H29.7078ZM59.4312 77.1169H83.1974V89H47.548V29.5843H83.1974V41.4675H59.4312V53.3506H77.2559V65.2337H59.4312V77.1169ZM118.847 71.1753H130.73V83.0584H124.788V89H95.0806V83.0584H89.139V35.5259H95.0806V29.5843H124.788V35.5259H130.73V47.409H118.847V41.4675H106.964V47.409H101.022V71.1753H106.964V77.1169H118.847V71.1753Z" fill="white"/>
<circle cx="149.856" cy="80.8555" r="7.85552" fill="#FF4043"/>
</svg>
